{
  "accessors": [
    {
      "bufferView": 2,
      "componentType": 5126,
      "count": 9357,
      "max": [
        0.23551000654697418,
        0.22111199796199799,
        0.429749995470047
      ],
      "min": [
        -0.21777699887752533,
        -0.053467001765966415,
        0.0086300000548362732
      ],
      "type": "VEC3"
    },
    {
      "bufferView": 2,
      "byteOffset": 112284,
      "componentType": 5126,
      "count": 9357,
      "max": [
        0.99985992908477783,
        0.99993789196014404,
        0.99969226121902466
      ],
      "min": [
        -0.99968641996383667,
        -0.9998052716255188,
        -0.99971026182174683
      ],
      "type": "VEC3"
    },
    {
      "bufferView": 3,
      "componentType": 5126,
      "count": 9357,
      "max": [
        0.99999290704727173,
        0.99984234571456909,
        0.99983227252960205,
        1
      ],
      "min": [
        -0.99999904632568359,
        -0.99995279312133789,
        -0.99966233968734741,
        -1
      ],
      "type": "VEC4"
    },
    {
      "bufferView": 1,
      "componentType": 5126,
      "count": 9357,
      "max": [
        0.99489998817443848,
        0.9976000189781189
      ],
      "min": [
        0.004999999888241291,
        0.009100000374019146
      ],
      "type": "VEC2"
    },
    {
      "bufferView": 0,
      "componentType": 5125,
      "count": 53040,
      "max": [
        9356
      ],
      "min": [
        0
      ],
      "type": "SCALAR"
    }
  ],
  "asset": {
    "extras": {
      "author": "FACT Learning (https://sketchfab.com/factlearning)",
      "license": "CC-BY-4.0 (http://creativecommons.org/licenses/by/4.0/)",
      "source": "https://sketchfab.com/models/79973283f51648e98a2b6400684cceed",
      "title": "baldman"
    },
    "generator": "Sketchfab-3.46.5",
    "version": "2.0"
  },
  "bufferViews": [
    {
      "buffer": 0,
      "byteLength": 212160,
      "byteOffset": 0,
      "name": "floatBufferViews",
      "target": 34963
    },
    {
      "buffer": 0,
      "byteLength": 74856,
      "byteOffset": 212160,
      "byteStride": 8,
      "name": "floatBufferViews",
      "target": 34962
    },
    {
      "buffer": 0,
      "byteLength": 224568,
      "byteOffset": 287016,
      "byteStride": 12,
      "name": "floatBufferViews",
      "target": 34962
    },
    {
      "buffer": 0,
      "byteLength": 149712,
      "byteOffset": 511584,
      "byteStride": 16,
      "name": "floatBufferViews",
      "target": 34962
    }
  ],
  "buffers": [
    {
      "byteLength": 661296,
      "uri": "scene.bin"
    }
  ],
  "materials": [
    {
      "doubleSided": true,
      "name": "Skin1",
      "pbrMetallicRoughness": {
        "baseColorFactor": [
          1,
          1,
          1,
          1
        ],
        "metallicFactor": 0,
        "roughnessFactor": 0.59999999999999998
      }
    }
  ],
  "meshes": [
    {
      "primitives": [
        {
          "attributes": {
            "NORMAL": 1,
            "POSITION": 0,
            "TANGENT": 2,
            "TEXCOORD_0": 3
          },
          "indices": 4,
          "material": 0,
          "mode": 4
        }
      ]
    }
  ],
  "nodes": [
    {
      "children": [
        1
      ],
      "name": "RootNode (gltf orientation matrix)",
      "rotation": [
        -0.70710678118654746,
        -0,
        -0,
        0.70710678118654757
      ]
    },
    {
      "children": [
        2
      ],
      "name": "RootNode (model correction matrix)"
    },
    {
      "children": [
        3
      ],
      "name": "baldman.obj.cleaner.materialmerger.gles"
    },
    {
      "mesh": 0,
      "name": ""
    }
  ],
  "scene": 0,
  "scenes": [
    {
      "name": "OSG_Scene",
      "nodes": [
        0
      ]
    }
  ]
}

